<svg width="240" height="240" viewBox="0 0 240 240" fill="none" xmlns="http://www.w3.org/2000/svg">
  <defs>
    <linearGradient id="g" x1="30" y1="28" x2="210" y2="212" gradientUnits="userSpaceOnUse">
      <stop stop-color="#B8FF3B"/>
      <stop offset="1" stop-color="#45D40A"/>
    </linearGradient>
    <filter id="f" x="0" y="0" width="240" height="240" filterUnits="userSpaceOnUse" color-interpolation-filters="sRGB">
      <feGaussianBlur stdDeviation="6"/>
    </filter>
  </defs>

  <rect x="20" y="20" width="200" height="200" rx="52" fill="#050705"/>
  <rect x="26" y="26" width="188" height="188" rx="46" stroke="url(#g)" stroke-opacity="0.55" stroke-width="2"/>

  <g filter="url(#f)" opacity="0.4">
    <path d="M42 138C64 114 88 168 111 144C128 128 146 102 170 116C188 126 196 158 198 180" stroke="#A9FF2D" stroke-width="7" stroke-linecap="round"/>
  </g>

  <path d="M44 136C66 112 90 166 112 142C129 126 147 100 171 114C189 124 197 156 199 178" stroke="url(#g)" stroke-width="8" stroke-linecap="round"/>
  <path d="M46 98H100" stroke="url(#g)" stroke-width="10" stroke-linecap="round"/>
  <path d="M46 170H88" stroke="url(#g)" stroke-width="10" stroke-linecap="round"/>
</svg>
